<svg width="1200" height="720" viewBox="0 0 1200 720" fill="none" xmlns="http://www.w3.org/2000/svg">
  <rect width="1200" height="720" rx="24" fill="#0B1220"/>
  <rect x="44" y="44" width="1112" height="632" rx="18" fill="#0F172A" stroke="#334155"/>
  <rect x="44" y="44" width="1112" height="64" rx="18" fill="#0A1020"/>
  <rect x="74" y="136" width="1052" height="456" rx="14" fill="#111827" stroke="#334155"/>
  <rect x="96" y="162" width="220" height="20" rx="10" fill="#22D3EE"/>
  <rect x="96" y="194" width="300" height="12" rx="6" fill="#64748B"/>
  <rect x="96" y="228" width="680" height="62" rx="14" fill="#0B1220" stroke="#1F2937"/>
  <rect x="96" y="308" width="560" height="62" rx="14" fill="#1E293B"/>
  <rect x="470" y="390" width="560" height="62" rx="14" fill="#0EA5E9" fill-opacity="0.22" stroke="#38BDF8"/>
  <rect x="96" y="470" width="640" height="62" rx="14" fill="#1E293B"/>
  <rect x="800" y="228" width="300" height="304" rx="12" fill="#0B1220" stroke="#1F2937"/>
  <circle cx="950" cy="292" r="62" fill="#60A5FA" fill-opacity="0.16"/>
  <rect x="852" y="386" width="196" height="14" rx="7" fill="#A78BFA"/>
  <rect x="852" y="412" width="196" height="10" rx="5" fill="#475569"/>
  <rect x="852" y="432" width="176" height="10" rx="5" fill="#334155"/>
  <rect x="74" y="608" width="1052" height="46" rx="12" fill="#0A1020" stroke="#334155"/>
  <rect x="96" y="621" width="760" height="20" rx="10" fill="#1E293B"/>
  <rect x="1068" y="618" width="40" height="26" rx="8" fill="#38BDF8"/>
  <text x="94" y="98" fill="#94A3B8" font-size="20" font-family="Arial, sans-serif">AI Tutor · Local model status: Online</text>
</svg>
