<svg width="1200" height="720" viewBox="0 0 1200 720" fill="none" xmlns="http://www.w3.org/2000/svg">
  <rect width="1200" height="720" rx="24" fill="#0B1220"/>
  <rect x="36" y="36" width="1128" height="648" rx="18" fill="#0F172A" stroke="#334155"/>
  <rect x="36" y="36" width="1128" height="58" rx="18" fill="#0A1020"/>
  <rect x="74" y="124" width="220" height="530" rx="12" fill="#0B1220" stroke="#1F2937"/>
  <rect x="320" y="124" width="560" height="530" rx="12" fill="#111827" stroke="#334155"/>
  <rect x="906" y="124" width="220" height="530" rx="12" fill="#0B1220" stroke="#1F2937"/>
  <rect x="352" y="164" width="300" height="18" rx="9" fill="#60A5FA"/>
  <rect x="352" y="196" width="480" height="12" rx="6" fill="#64748B"/>
  <rect x="352" y="218" width="430" height="12" rx="6" fill="#475569"/>
  <rect x="352" y="258" width="500" height="86" rx="12" fill="#1E293B"/>
  <rect x="352" y="364" width="500" height="86" rx="12" fill="#1E293B"/>
  <rect x="352" y="470" width="500" height="86" rx="12" fill="#1E293B"/>
  <rect x="938" y="166" width="156" height="16" rx="8" fill="#A78BFA"/>
  <rect x="938" y="194" width="150" height="12" rx="6" fill="#64748B"/>
  <rect x="938" y="246" width="156" height="16" rx="8" fill="#22D3EE"/>
  <rect x="938" y="274" width="150" height="12" rx="6" fill="#64748B"/>
  <rect x="938" y="326" width="156" height="16" rx="8" fill="#F59E0B"/>
  <rect x="938" y="354" width="150" height="12" rx="6" fill="#64748B"/>
  <rect x="106" y="160" width="160" height="14" rx="7" fill="#94A3B8"/>
  <rect x="106" y="192" width="140" height="12" rx="6" fill="#475569"/>
  <rect x="106" y="220" width="150" height="12" rx="6" fill="#334155"/>
  <rect x="106" y="276" width="160" height="14" rx="7" fill="#94A3B8"/>
  <rect x="106" y="308" width="140" height="12" rx="6" fill="#475569"/>
  <rect x="106" y="336" width="150" height="12" rx="6" fill="#334155"/>
  <text x="350" y="612" fill="#94A3B8" font-size="24" font-family="Arial, sans-serif">Learn, review, and challenge flow</text>
</svg>
